<svg xmlns="http://www.w3.org/2000/svg" width="26" height="25"><style/><path id="Shape 1" d="M20.11 5.5C16.19 1.57 9.83 1.57 5.9 5.5c-3.77 3.78-3.91 9.82-.42 13.76l.11.09c-.38.82-1.04 1.83-2.07 2.34-.34.16-.26.67.11.73 1.13.18 2.76-.02 4.27-1.16l.03.01c3.85 2.27 8.88 1.75 12.19-1.56 3.92-3.92 3.92-10.29-.01-14.21zm-3.79 11.4c-.22.23-.46.44-.66.67-.31.35-.69.45-1.13.43-.63-.03-1.22-.25-1.79-.52a9.679 9.679 0 01-3.22-2.53c-.67-.79-1.21-1.65-1.58-2.62-.17-.48-.3-.96-.26-1.47.02-.31.14-.58.37-.8.25-.24.48-.48.73-.73.32-.31.72-.31 1.05 0 .2.2.39.4.58.59.2.2.39.38.58.58.33.33.33.73 0 1.07-.24.24-.48.48-.73.71-.06.07-.07.12-.03.2.15.38.39.72.65 1.04.52.64 1.11 1.22 1.82 1.66.15.09.32.16.48.25.08.05.14.03.2-.04.24-.24.48-.49.73-.73.32-.32.72-.32 1.04 0l1.17 1.17c.33.34.33.74 0 1.07zm-3.71-6.49l.13-.89c.86.12 1.65.51 2.27 1.13.59.59.97 1.33 1.11 2.14l-.89.16c-.11-.63-.41-1.2-.86-1.66-.48-.48-1.09-.79-1.76-.88zm4.96 2.38c-.2-1.17-.75-2.23-1.59-3.07a5.611 5.611 0 00-3.25-1.62l.13-.9c1.43.2 2.73.85 3.76 1.88.97.97 1.61 2.21 1.84 3.56l-.89.15z" fill="#fff"/></svg>