<svg xmlns="http://www.w3.org/2000/svg" width="23" height="25"><style/><path id="Иконка" d="M7.12 12.57c0-.59-.43-.95-1.18-.95-.3 0-.51.03-.62.06v1.91c.13.03.29.04.5.04.8 0 1.3-.4 1.3-1.06zm4.63-.93c-.34 0-.55.03-.68.06v4.23c.13.03.33.03.52.03 1.36.01 2.25-.72 2.25-2.27.01-1.34-.8-2.05-2.09-2.05zm8.88-2.49h-.54V6.59c0-.02-.01-.03-.01-.05 0-.1-.03-.2-.11-.28L15.6 1.39a.647.647 0 00-.09-.08c-.01 0-.02-.01-.03-.01a.355.355 0 00-.09-.04c-.01 0-.02 0-.02-.01-.04 0-.07-.01-.11-.01H4.51c-.49 0-.89.39-.89.87v7.04h-.54c-.7 0-1.27.55-1.27 1.24v6.44c0 .69.57 1.24 1.27 1.24h.54v4.42c0 .47.4.86.89.86H19.2c.49 0 .89-.39.89-.86v-4.42h.54c.7 0 1.27-.55 1.27-1.24v-6.44c0-.69-.57-1.24-1.27-1.24zM4.51 2.11h10.31v4.43c0 .24.2.44.44.44h3.94v2.17H4.51V2.11zm10.93 11.54c0 1.24-.47 2.09-1.11 2.62-.7.57-1.76.83-3.06.83-.78 0-1.33-.04-1.71-.09v-6.36c.55-.09 1.27-.13 2.03-.13 1.26 0 2.08.22 2.72.69.69.5 1.13 1.29 1.13 2.44zM3.83 17.04v-6.39c.47-.08 1.12-.13 2.03-.13.93 0 1.59.17 2.03.51.43.33.71.87.71 1.5 0 .64-.21 1.18-.61 1.54-.51.47-1.27.68-2.16.68-.19 0-.37-.01-.51-.03v2.32H3.83zm15.37 5.21H4.51v-4.18H19.2v4.18zm1.28-10.49h-2.55v1.48h2.39v1.19h-2.39v2.61h-1.51v-6.48h4.06v1.2z" fill="#40912f"/></svg>