<svg xmlns="http://www.w3.org/2000/svg" viewBox="0 0 26 25" width="26" height="25">
	<style>
		tspan { white-space:pre }
		.shp0 { fill: #ffffff } 
	</style>
	<path id="Shape 1" class="shp0" d="M20.11 5.5C16.19 1.57 9.83 1.57 5.9 5.5C2.13 9.28 1.99 15.32 5.48 19.26L5.59 19.35C5.21 20.17 4.55 21.18 3.52 21.69C3.18 21.85 3.26 22.36 3.63 22.42C4.76 22.6 6.39 22.4 7.9 21.26L7.93 21.27C11.78 23.54 16.81 23.02 20.12 19.71C24.04 15.79 24.04 9.42 20.11 5.5ZM16.32 16.9C16.1 17.13 15.86 17.34 15.66 17.57C15.35 17.92 14.97 18.02 14.53 18C13.9 17.97 13.31 17.75 12.74 17.48C11.49 16.87 10.41 16.02 9.52 14.95C8.85 14.16 8.31 13.3 7.94 12.33C7.77 11.85 7.64 11.37 7.68 10.86C7.7 10.55 7.82 10.28 8.05 10.06C8.3 9.82 8.53 9.58 8.78 9.33C9.1 9.02 9.5 9.02 9.83 9.33C10.03 9.53 10.22 9.73 10.41 9.92C10.61 10.12 10.8 10.3 10.99 10.5C11.32 10.83 11.32 11.23 10.99 11.57C10.75 11.81 10.51 12.05 10.26 12.28C10.2 12.35 10.19 12.4 10.23 12.48C10.38 12.86 10.62 13.2 10.88 13.52C11.4 14.16 11.99 14.74 12.7 15.18C12.85 15.27 13.02 15.34 13.18 15.43C13.26 15.48 13.32 15.46 13.38 15.39C13.62 15.15 13.86 14.9 14.11 14.66C14.43 14.34 14.83 14.34 15.15 14.66C15.54 15.05 15.93 15.44 16.32 15.83C16.65 16.17 16.65 16.57 16.32 16.9ZM12.61 10.41L12.74 9.52C13.6 9.64 14.39 10.03 15.01 10.65C15.6 11.24 15.98 11.98 16.12 12.79L15.23 12.95C15.12 12.32 14.82 11.75 14.37 11.29C13.89 10.81 13.28 10.5 12.61 10.41ZM17.57 12.79C17.37 11.62 16.82 10.56 15.98 9.72C15.1 8.83 13.97 8.27 12.73 8.1L12.86 7.2C14.29 7.4 15.59 8.05 16.62 9.08C17.59 10.05 18.23 11.29 18.46 12.64L17.57 12.79Z" />
</svg>