<svg xmlns="http://www.w3.org/2000/svg" viewBox="0 0 29 29" width="29" height="29">
	<style>
		tspan { white-space:pre }
		.shp0 { fill: #5aa54a } 
		.shp1 { fill: #ffffff } 
	</style>
	<path id="Прямоугольник 758" class="shp0" d="M3.81 1.16L25.93 1.16C27.04 1.16 27.93 2.06 27.93 3.16L27.93 25.29C27.93 26.4 27.04 27.29 25.93 27.29L3.81 27.29C2.71 27.29 1.81 26.4 1.81 25.29L1.81 3.16C1.81 2.06 2.71 1.16 3.81 1.16Z" />
	<path id="Forma 1" class="shp1" d="M22.91 17.58C22.91 17.87 22.81 18.14 22.65 18.38L17.58 13.65L22.6 9.99C22.79 10.24 22.91 10.55 22.91 10.88L22.91 17.58ZM14.87 14.51L21.86 9.41C21.57 9.28 21.25 9.2 20.9 9.2L8.84 9.2C8.5 9.2 8.17 9.28 7.89 9.41L14.87 14.51ZM16.82 14.2L15.2 15.38C15.11 15.45 14.99 15.48 14.87 15.48C14.75 15.48 14.64 15.45 14.54 15.38L12.92 14.2L7.79 18.99C8.09 19.16 8.45 19.25 8.84 19.25L20.9 19.25C21.29 19.25 21.65 19.16 21.96 18.99L16.82 14.2ZM7.15 9.99C6.95 10.24 6.84 10.55 6.84 10.88L6.84 17.58C6.84 17.87 6.93 18.14 7.09 18.38L12.17 13.65L7.15 9.99Z" />
</svg>