<svg xmlns="http://www.w3.org/2000/svg" viewBox="0 0 23 25" width="23" height="25">
	<style>
		tspan { white-space:pre }
		.shp0 { fill: #40912f } 
	</style>
	<path id="Иконка" class="shp0" d="M7.12 12.57C7.12 11.98 6.69 11.62 5.94 11.62C5.64 11.62 5.43 11.65 5.32 11.68L5.32 13.59C5.45 13.62 5.61 13.63 5.82 13.63C6.62 13.63 7.12 13.23 7.12 12.57ZM11.75 11.64C11.41 11.64 11.2 11.67 11.07 11.7L11.07 15.93C11.2 15.96 11.4 15.96 11.59 15.96C12.95 15.97 13.84 15.24 13.84 13.69C13.85 12.35 13.04 11.64 11.75 11.64ZM20.63 9.15L20.09 9.15L20.09 6.59C20.09 6.57 20.08 6.56 20.08 6.54C20.08 6.44 20.05 6.34 19.97 6.26L15.6 1.39C15.6 1.39 15.6 1.39 15.6 1.39C15.57 1.36 15.54 1.33 15.51 1.31C15.5 1.31 15.49 1.3 15.48 1.3C15.45 1.28 15.42 1.27 15.39 1.26C15.38 1.26 15.37 1.26 15.37 1.25C15.33 1.25 15.3 1.24 15.26 1.24L4.51 1.24C4.02 1.24 3.62 1.63 3.62 2.11L3.62 9.15L3.08 9.15C2.38 9.15 1.81 9.7 1.81 10.39L1.81 16.83C1.81 17.52 2.38 18.07 3.08 18.07L3.62 18.07L3.62 22.49C3.62 22.96 4.02 23.35 4.51 23.35L19.2 23.35C19.69 23.35 20.09 22.96 20.09 22.49L20.09 18.07L20.63 18.07C21.33 18.07 21.9 17.52 21.9 16.83L21.9 10.39C21.9 9.7 21.33 9.15 20.63 9.15ZM4.51 2.11L14.82 2.11L14.82 6.54C14.82 6.78 15.02 6.98 15.26 6.98L19.2 6.98L19.2 9.15L4.51 9.15L4.51 2.11ZM15.44 13.65C15.44 14.89 14.97 15.74 14.33 16.27C13.63 16.84 12.57 17.1 11.27 17.1C10.49 17.1 9.94 17.06 9.56 17.01L9.56 10.65C10.11 10.56 10.83 10.52 11.59 10.52C12.85 10.52 13.67 10.74 14.31 11.21C15 11.71 15.44 12.5 15.44 13.65ZM3.83 17.04L3.83 10.65C4.3 10.57 4.95 10.52 5.86 10.52C6.79 10.52 7.45 10.69 7.89 11.03C8.32 11.36 8.6 11.9 8.6 12.53C8.6 13.17 8.39 13.71 7.99 14.07C7.48 14.54 6.72 14.75 5.83 14.75C5.64 14.75 5.46 14.74 5.32 14.72L5.32 17.04L3.83 17.04L3.83 17.04ZM19.2 22.25L4.51 22.25L4.51 18.07L19.2 18.07L19.2 22.25ZM20.48 11.76L17.93 11.76L17.93 13.24L20.32 13.24L20.32 14.43L17.93 14.43L17.93 17.04L16.42 17.04L16.42 10.56L20.48 10.56L20.48 11.76Z" />
</svg>