<svg xmlns="http://www.w3.org/2000/svg" viewBox="0 0 29 29" width="29" height="29">
	<style>
		tspan { white-space:pre }
		.shp0 { fill: #5aa54a } 
		.shp1 { fill: #ffffff } 
	</style>
	<path id="Прямоугольник 758" class="shp0" d="M3.79 1.16L25.91 1.16C27.02 1.16 27.91 2.06 27.91 3.16L27.91 25.29C27.91 26.4 27.02 27.29 25.91 27.29L3.79 27.29C2.69 27.29 1.79 26.4 1.79 25.29L1.79 3.16C1.79 2.06 2.69 1.16 3.79 1.16Z" />
	<path id="Forma 1" class="shp1" d="M21.59 17.53L19.57 15.51C19.17 15.11 18.51 15.12 18.09 15.53L17.08 16.55C17.01 16.52 16.95 16.48 16.88 16.44C16.24 16.09 15.36 15.6 14.43 14.67C13.51 13.74 13.02 12.86 12.66 12.21C12.62 12.14 12.59 12.08 12.55 12.02L13.24 11.33L13.57 11C13.99 10.58 14 9.91 13.6 9.51L11.58 7.49C11.18 7.08 10.51 7.1 10.1 7.51L9.53 8.09L9.55 8.1C9.36 8.35 9.2 8.63 9.08 8.93C8.97 9.22 8.9 9.5 8.87 9.77C8.6 11.99 9.61 14.01 12.35 16.76C16.13 20.55 19.18 20.27 19.31 20.25C19.6 20.22 19.87 20.15 20.15 20.04C20.45 19.92 20.73 19.76 20.98 19.57L20.99 19.58L21.56 19.02C21.98 18.6 21.99 17.93 21.59 17.53Z" />
</svg>