<svg xmlns="http://www.w3.org/2000/svg" viewBox="0 0 20 20" width="20" height="20">
	<style>
		tspan { white-space:pre }
		.shp0 { fill: #ffffff } 
	</style>
	<path id="Forma 1" class="shp0" d="M18.34 17.13L14.13 12.9C15.21 11.65 15.81 10.09 15.81 8.46C15.81 4.66 12.6 1.56 8.67 1.56C4.73 1.56 1.53 4.66 1.53 8.46C1.53 12.27 4.73 15.36 8.67 15.36C10.15 15.36 11.55 14.93 12.76 14.11L17 18.37C17.18 18.55 17.41 18.65 17.67 18.65C17.91 18.65 18.14 18.56 18.31 18.4C18.68 18.06 18.7 17.48 18.34 17.13ZM8.67 3.36C11.58 3.36 13.94 5.65 13.94 8.46C13.94 11.27 11.58 13.56 8.67 13.56C5.76 13.56 3.39 11.27 3.39 8.46C3.39 5.65 5.76 3.36 8.67 3.36Z" />
</svg>