<svg xmlns="http://www.w3.org/2000/svg" width="29" height="29"><style/><path id="Прямоугольник 758" d="M3.81 1.16h22.12a2 2 0 012 2v22.13c0 1.11-.89 2-2 2H3.81a2 2 0 01-2-2V3.16c0-1.1.9-2 2-2z" fill="#5aa54a"/><path id="Forma 1" d="M22.91 17.58c0 .29-.1.56-.26.8l-5.07-4.73 5.02-3.66c.19.25.31.56.31.89v6.7zm-8.04-3.07l6.99-5.1c-.29-.13-.61-.21-.96-.21H8.84c-.34 0-.67.08-.95.21l6.98 5.1zm1.95-.31l-1.62 1.18c-.09.07-.21.1-.33.1-.12 0-.23-.03-.33-.1l-1.62-1.18-5.13 4.79c.3.17.66.26 1.05.26H20.9c.39 0 .75-.09 1.06-.26l-5.14-4.79zM7.15 9.99c-.2.25-.31.56-.31.89v6.7c0 .29.09.56.25.8l5.08-4.73-5.02-3.66z" fill="#fff"/></svg>