<svg xmlns="http://www.w3.org/2000/svg" width="29" height="29"><style/><path id="Прямоугольник 758" d="M3.79 1.16h22.12a2 2 0 012 2v22.13c0 1.11-.89 2-2 2H3.79a2 2 0 01-2-2V3.16c0-1.1.9-2 2-2z" fill="#5aa54a"/><path id="Forma 1" d="M21.59 17.53l-2.02-2.02c-.4-.4-1.06-.39-1.48.02l-1.01 1.02c-.07-.03-.13-.07-.2-.11-.64-.35-1.52-.84-2.45-1.77-.92-.93-1.41-1.81-1.77-2.46-.04-.07-.07-.13-.11-.19l.69-.69.33-.33c.42-.42.43-1.09.03-1.49l-2.02-2.02c-.4-.41-1.07-.39-1.48.02l-.57.58.02.01c-.19.25-.35.53-.47.83-.11.29-.18.57-.21.84-.27 2.22.74 4.24 3.48 6.99 3.78 3.79 6.83 3.51 6.96 3.49.29-.03.56-.1.84-.21.3-.12.58-.28.83-.47l.01.01.57-.56c.42-.42.43-1.09.03-1.49z" fill="#fff"/></svg>